<?xml version="1.0" encoding="utf-8"?>
<!-- Generator: Adobe Illustrator 25.2.0, SVG Export Plug-In . SVG Version: 6.00 Build 0)  -->
<svg version="1.1" id="Layer_1" xmlns="http://www.w3.org/2000/svg" xmlns:xlink="http://www.w3.org/1999/xlink" x="0px" y="0px"
	 viewBox="0 0 671 183.6" style="enable-background:new 0 0 671 183.6;" xml:space="preserve">
<style type="text/css">
	.st0{fill:#FFFFFF;}
	.st1{fill:#019F44;}
</style>
<g>
	<g>
		<g>
			<path class="st0" d="M332.3,32.8v103.3h-24.1L262.6,81v55.1H234V32.8h24l45.6,55.1V32.8H332.3z"/>
			<path class="st0" d="M435.9,113.6v22.6h-83V32.8h81v22.6h-52.1v17.4h45.9v21.8h-45.9v18.9L435.9,113.6L435.9,113.6z"/>
			<path class="st0" d="M464.1,135.1c-7.9-2.1-14.3-4.8-19.2-8.3l9.6-21.5c4.6,3.1,10,5.5,16.1,7.4s12.1,2.8,18,2.8
				c11.2,0,16.8-2.8,16.8-8.4c0-3-1.6-5.1-4.8-6.6c-3.2-1.4-8.3-2.9-15.4-4.5c-7.8-1.7-14.3-3.5-19.5-5.4s-9.7-5-13.4-9.2
				c-3.7-4.2-5.6-9.9-5.6-17.1c0-6.3,1.7-12,5.2-17c3.4-5.1,8.6-9.1,15.4-12c6.8-3,15.2-4.4,25.2-4.4c6.8,0,13.5,0.8,20.1,2.3
				c6.6,1.5,12.4,3.8,17.4,6.7l-9,21.7c-9.8-5.3-19.4-8-28.6-8c-5.8,0-10,0.9-12.7,2.6c-2.7,1.7-4,4-4,6.7c0,2.8,1.6,4.8,4.7,6.2
				s8.2,2.8,15.2,4.3c7.9,1.7,14.4,3.5,19.6,5.4s9.6,5,13.4,9.2c3.8,4.2,5.7,9.9,5.7,17c0,6.2-1.7,11.8-5.2,16.8
				c-3.4,5-8.6,9-15.5,12c-6.9,3-15.3,4.5-25.1,4.5C480.1,138.2,472,137.2,464.1,135.1z"/>
			<path class="st0" d="M572.5,56h-31.7V32.8h92.5V56h-31.6v80.1h-29.2V56z"/>
		</g>
		<g>
			<path class="st1" d="M126.8,178.9c32.6-10.5,57.8-37.8,65.3-71.6C162.4,122.6,139.2,148,126.8,178.9z M152.2,93.1
				c-21.4,16.1-39,37.2-50.9,61.2c-4.6,9.3-8.4,19-11.2,29c2.3,0.2,4.6,0.2,7,0.2c4.5,0,9-0.3,13.3-0.9c13-39.3,41.3-71.5,78.5-89.5
				C188.9,93.1,152.2,93.1,152.2,93.1z M17.1,93.1H0c2.2,31.7,19.6,59.2,45,75.3c2.1-7.1,4.6-14.2,7.4-21.1
				C32.9,135.5,20,115.7,17.1,93.1z M70.6,93.1c1.6,3.5,4.1,6.6,7.1,8.9c2.2-3,4.5-6,6.8-8.9H70.6z M56.8,93.1H31.4
				c2.7,17,12.4,31.9,26.9,41.2c3.6-7.4,7.7-14.6,12.1-21.5C63.7,108,59,101,56.8,93.1z M103.1,93.1c-6.8,7.5-13.1,15.6-18.7,24.1
				c-6.1,9.2-11.6,19-16.2,29.2l-0.3,0.8c-4.1,9.1-7.5,18.6-10.1,28.1c5.8,2.6,11.9,4.6,18.3,6c3.1-11.4,7.4-22.6,12.7-33.2
				c10.3-20.7,24.4-39.4,41.5-54.9h-27.2V93.1z"/>
			<g>
				<path class="st0" d="M160.5,2.2c0.3-0.5,0.3-1,0-1.5S159.7,0,159.2,0c-7.3,0.5-31.4,24.4-63.1,24.9C64.3,24.4,40.3,0.5,32.9,0
					c-0.5,0-1.1,0.2-1.3,0.7c-0.3,0.5-0.3,1,0,1.5c1.4,2.6,5,7.4,5.8,12.7C38.3,20.8,24.8,57,55.5,73c0.2,0.1,0.5,0.1,0.6-0.1
					c0.2-0.2,0.1-0.5,0-0.7C38,52.1,41.4,31.7,56.8,24.8c1.1-0.5,5.2-0.2,10.5,3.9l0.7-0.1c-9.8,1.7-17.1,10.6-16.4,21
					c0.6,9.8,8.6,17.9,18.4,18.6c6.6,0.5,12.7-2.3,16.6-6.8c0.9-1.1,1.5-0.5,1.7,0l7.9,15.1l7.7-15.1c0.2-0.5,0.9-1.1,1.8,0
					c4,4.6,10,7.3,16.6,6.8c9.8-0.7,17.7-8.7,18.4-18.5c0.7-10.4-6.5-19.2-16.1-21.1h0.3c5.3-4.1,9.4-4.4,10.5-3.9
					c15.4,6.9,18.7,27.4,0.6,47.5c-0.2,0.2-0.2,0.5,0,0.7s0.4,0.2,0.6,0.1c30.8-16,17.3-52.3,18.2-58.2
					C155.5,9.6,159.1,4.8,160.5,2.2z M85.6,51.8c-0.7,6.8-6.2,12.3-13,13c-9.2,0.9-16.9-6.8-15.9-15.9c0.7-6.8,6.2-12.3,13-13
					C78.9,34.9,86.6,42.6,85.6,51.8z M134.9,48.8c0.9,9.2-6.8,16.9-15.9,15.9c-6.8-0.7-12.3-6.2-13-13c-0.9-9.2,6.7-16.9,15.9-15.9
					C128.8,36.5,134.3,42,134.9,48.8z"/>
			</g>
		</g>
	</g>
	<g>
		<path class="st0" d="M648.4,34.4H644v-1.6h10.8v1.6h-4.5v13h-1.9L648.4,34.4L648.4,34.4z"/>
		<path class="st0" d="M668.7,41c-0.1-2-0.2-4.5-0.2-6.3h-0.1c-0.5,1.7-1.1,3.5-1.8,5.5l-2.6,7.1h-1.4l-2.4-7
			c-0.7-2.1-1.3-3.9-1.7-5.7l0,0c0,1.8-0.2,4.3-0.3,6.5l-0.4,6.3H656l1-14.6h2.4l2.5,7.1c0.6,1.8,1.1,3.4,1.5,4.9h0.1
			c0.4-1.5,0.9-3.1,1.5-4.9l2.6-7.1h2.4l0.9,14.6h-1.8L668.7,41z"/>
	</g>
</g>
</svg>
