<?xml version="1.0" encoding="UTF-8"?>
<svg width="120px" height="19px" viewBox="0 0 120 19" version="1.1" xmlns="http://www.w3.org/2000/svg" xmlns:xlink="http://www.w3.org/1999/xlink">
    <!-- Generator: Sketch 53.2 (72643) - https://sketchapp.com -->
    <title>Group 33</title>
    <desc>Created with Sketch.</desc>
    <g id="Updates_KD" stroke="none" stroke-width="1" fill="none" fill-rule="evenodd">
        <g id="Product-Page---Desktop-10+/custom-#" transform="translate(-814.000000, -191.000000)" fill="#FFBE00">
            <g id="Group-33" transform="translate(814.000000, 191.000000)">
                <path d="M4.24516034,18.9981782 C4.1024344,18.9981782 3.96062631,18.9570665 3.84038774,18.8702751 C3.62836399,18.7149642 3.52235212,18.45459 3.566409,18.1987838 L4.60449929,12.1736343 L0.207989557,7.91172028 C0.0202888807,7.72900156 -0.0471732207,7.45492349 0.0335977306,7.20825323 C0.114827608,6.957015 0.330063836,6.77886425 0.589356947,6.74232051 L6.66553533,5.86070272 L9.38283534,0.383709297 C9.49894358,0.14617497 9.73804396,0 10.0000906,0 C10.2621373,0 10.5012377,0.14617497 10.6173459,0.383709297 L13.3346459,5.86070272 L19.4103654,6.74232051 C19.6696585,6.77886425 19.8853536,6.957015 19.9661246,7.20825323 C20.0473545,7.45492349 19.9798924,7.72900156 19.7917328,7.91172028 L15.395682,12.1736343 L16.4333133,18.1987838 C16.4773702,18.45459 16.3713583,18.7149642 16.1593346,18.8702751 C15.9473108,19.021018 15.6669071,19.0438579 15.4342317,18.9205227 L10.0000906,16.0792467 L4.56549059,18.9205227 C4.46498583,18.9753384 4.35484362,18.9981782 4.24516034,18.9981782 L4.24516034,18.9981782 Z" id="4J-Copy-10"></path>
                <path d="M54.2451603,18.9981782 C54.1024344,18.9981782 53.9606263,18.9570665 53.8403877,18.8702751 C53.628364,18.7149642 53.5223521,18.45459 53.566409,18.1987838 L54.6044993,12.1736343 L50.2079896,7.91172028 C50.0202889,7.72900156 49.9528268,7.45492349 50.0335977,7.20825323 C50.1148276,6.957015 50.3300638,6.77886425 50.5893569,6.74232051 L56.6655353,5.86070272 L59.3828353,0.383709297 C59.4989436,0.14617497 59.738044,0 60.0000906,0 C60.2621373,0 60.5012377,0.14617497 60.6173459,0.383709297 L63.3346459,5.86070272 L69.4103654,6.74232051 C69.6696585,6.77886425 69.8853536,6.957015 69.9661246,7.20825323 C70.0473545,7.45492349 69.9798924,7.72900156 69.7917328,7.91172028 L65.395682,12.1736343 L66.4333133,18.1987838 C66.4773702,18.45459 66.3713583,18.7149642 66.1593346,18.8702751 C65.9473108,19.021018 65.6669071,19.0438579 65.4342317,18.9205227 L60.0000906,16.0792467 L54.5654906,18.9205227 C54.4649858,18.9753384 54.3548436,18.9981782 54.2451603,18.9981782 L54.2451603,18.9981782 Z" id="4J-Copy-11"></path>
                <path d="M29.2451603,18.9981782 C29.1024344,18.9981782 28.9606263,18.9570665 28.8403877,18.8702751 C28.628364,18.7149642 28.5223521,18.45459 28.566409,18.1987838 L29.6044993,12.1736343 L25.2079896,7.91172028 C25.0202889,7.72900156 24.9528268,7.45492349 25.0335977,7.20825323 C25.1148276,6.957015 25.3300638,6.77886425 25.5893569,6.74232051 L31.6655353,5.86070272 L34.3828353,0.383709297 C34.4989436,0.14617497 34.738044,0 35.0000906,0 C35.2621373,0 35.5012377,0.14617497 35.6173459,0.383709297 L38.3346459,5.86070272 L44.4103654,6.74232051 C44.6696585,6.77886425 44.8853536,6.957015 44.9661246,7.20825323 C45.0473545,7.45492349 44.9798924,7.72900156 44.7917328,7.91172028 L40.395682,12.1736343 L41.4333133,18.1987838 C41.4773702,18.45459 41.3713583,18.7149642 41.1593346,18.8702751 C40.9473108,19.021018 40.6669071,19.0438579 40.4342317,18.9205227 L35.0000906,16.0792467 L29.5654906,18.9205227 C29.4649858,18.9753384 29.3548436,18.9981782 29.2451603,18.9981782 L29.2451603,18.9981782 Z" id="4J-Copy-12"></path>
                <path d="M78.8403877,18.8702751 C78.628364,18.7149642 78.5223521,18.45459 78.566409,18.1987838 L79.6044993,12.1736343 L75.2079896,7.91172028 C75.0202889,7.72900156 74.9528268,7.45492349 75.0335977,7.20825323 C75.1148276,6.957015 75.3300638,6.77886425 75.5893569,6.74232051 L81.6655353,5.86070272 L84.3828353,0.383709297 C84.4989436,0.14617497 84.738044,-5.32907052e-15 85.0000906,-5.32907052e-15 C85.2621373,-5.32907052e-15 85.5012377,0.14617497 85.6173459,0.383709297 L88.3346459,5.86070272 L94.4103654,6.74232051 C94.6696585,6.77886425 94.8853536,6.957015 94.9661246,7.20825323 C95.0473545,7.45492349 94.9798924,7.72900156 94.7917328,7.91172028 L90.395682,12.1736343 L91.4333133,18.1987838 C91.4773702,18.45459 91.3713583,18.7149642 91.1593346,18.8702751 C90.9473108,19.021018 90.6669071,19.0438579 90.4342317,18.9205227 L85.0000906,16.0792467 L79.5654906,18.9205227 C79.4649858,18.9753384 79.3548436,18.9981782 79.2451603,18.9981782 C79.1024344,18.9981782 78.9606263,18.9570665 78.8403877,18.8702751 Z" id="4J-Copy-13"></path>
                <path d="M104.24516,18.9981782 C104.102434,18.9981782 103.960626,18.9570665 103.840388,18.8702751 C103.628364,18.7149642 103.522352,18.45459 103.566409,18.1987838 L104.604499,12.1736343 L100.20799,7.91172028 C100.020289,7.72900156 99.9528268,7.45492349 100.033598,7.20825323 C100.114828,6.957015 100.330064,6.77886425 100.589357,6.74232051 L106.665535,5.86070272 L109.382835,0.383709297 C109.498944,0.14617497 109.738044,0 110.000091,0 C110.262137,0 110.501238,0.14617497 110.617346,0.383709297 L113.334646,5.86070272 L119.410365,6.74232051 C119.669658,6.77886425 119.885354,6.957015 119.966125,7.20825323 C120.047354,7.45492349 119.979892,7.72900156 119.791733,7.91172028 L115.395682,12.1736343 L116.433313,18.1987838 C116.47737,18.45459 116.371358,18.7149642 116.159335,18.8702751 C115.947311,19.021018 115.666907,19.0438579 115.434232,18.9205227 L110.000091,16.0792467 L104.565491,18.9205227 C104.464986,18.9753384 104.354844,18.9981782 104.24516,18.9981782 L104.24516,18.9981782 Z" id="4J-Copy-14"></path>
            </g>
        </g>
    </g>
</svg>