<svg width="28" height="31" viewBox="0 0 28 31" fill="none" xmlns="http://www.w3.org/2000/svg">
<path d="M12.3419 2.8042C13.4784 2.8042 14.5683 3.25566 15.372 4.05928C16.1756 4.86289 16.627 5.95283 16.627 7.08931C16.627 7.89205 16.2571 9.14901 15.5186 10.8602L15.723 10.9233L16.9984 10.0989C17.7112 9.24186 18.3154 8.66765 18.8124 8.3777C19.2966 8.09658 19.8317 7.91414 20.3867 7.84092C20.9418 7.7677 21.5058 7.80515 22.0463 7.9511C22.5868 8.09704 23.093 8.3486 23.5358 8.69126C23.9785 9.03391 24.349 9.46086 24.6259 9.94747C25.1909 10.9313 25.3442 12.0984 25.0526 13.1948C24.761 14.2911 24.048 15.2278 23.069 15.8009C22.5348 16.1109 20.0351 15.6561 19.3315 15.8851L17.5273 16.7872L20.0551 17.5535C21.4764 17.7607 22.4805 18.0349 23.069 18.3763C24.048 18.9494 24.761 19.8861 25.0526 20.9825C25.3442 22.0788 24.8596 22.5694 24.2946 23.5531C24.0176 24.0396 23.5118 23.7344 23.069 24.0769C22.6262 24.4194 21.6777 23.4073 21.1372 23.5531C20.5967 23.6989 19.3674 22.2733 18.8124 22.1999C18.2575 22.1266 19.2965 26.0793 18.8124 25.7981C18.3154 25.5096 18.6911 26.344 17.9783 25.4856V26.2595L17.5272 26.7106C18.2643 28.4232 16.9984 27.2625 16.9984 28.0638C16.9984 29.2003 15.6259 28.1623 14.8223 28.9659C14.0187 29.7695 14.1531 28.9659 13.0166 28.9659C11.8801 28.9659 12.0174 28.4163 11.2138 27.6127C10.4102 26.8091 9.40951 26.622 9.40951 25.4856C9.40951 24.6828 8.67104 25.0268 9.40951 23.3156L10.1994 21.373L7.68545 23.5531C6.97269 24.4116 6.74914 23.7157 6.25206 24.0042C5.76799 24.2854 5.90492 24.0036 5.34994 24.0769C4.79495 24.1502 4.79214 24.2227 4.25165 24.0769C3.71116 23.9311 3.08037 23.6581 2.63756 23.3156C2.19475 22.9731 2.46947 23.1375 2.19249 22.651C1.62753 21.6672 0.856459 21.492 1.14807 20.3957C1.43968 19.2993 0.635821 18.9494 1.61488 18.3763C2.14909 18.0649 0.969805 17.7535 2.19249 17.5535V16.6237L4.25165 16.3361C2.83042 16.129 5.93701 14.4222 5.34852 14.0808C4.36908 13.5077 2.48401 13.3732 2.19238 12.2765C1.90075 11.1799 0.581361 10.9314 1.14677 9.94747C1.42362 9.46086 0.705315 9.03248 1.14807 8.68983C1.59082 8.34718 2.09706 8.09562 2.63756 7.94967C3.17806 7.80372 3.74211 7.76628 4.29716 7.8395C4.85221 7.91272 5.38726 8.09515 5.87142 8.37627C6.36849 8.66623 6.97269 9.239 7.68545 10.0975L10.1994 12.8028C12.3419 11.1164 9.85918 7.62494 9.85918 7.08931C9.85918 5.95283 8.6045 4.961 9.40811 4.15739C10.2117 3.35378 11.2055 2.8042 12.3419 2.8042Z" fill="#CFE2E5"/>
<path d="M14.1448 1C15.2813 1 16.3712 1.45147 17.1748 2.25508C17.9784 3.05869 18.4299 4.14863 18.4299 5.28511C18.4299 6.08785 18.06 7.34482 17.3215 9.056L16.2874 10.9986L18.8013 8.29468C19.514 7.43766 20.1182 6.86345 20.6153 6.5735C21.0995 6.29238 21.6345 6.10994 22.1896 6.03672C22.7446 5.9635 23.3087 6.00095 23.8492 6.1469C24.3897 6.29285 24.8959 6.54441 25.3387 6.88706C25.7814 7.22971 26.1519 7.65666 26.4288 8.14327C26.9937 9.12706 27.1471 10.2942 26.8555 11.3906C26.5639 12.4869 25.8509 13.4236 24.8718 13.9967C24.3376 14.3067 23.4578 14.5624 22.2351 14.7609L18.4299 15.2837L21.858 15.7493C23.2792 15.9565 24.2834 16.2307 24.8718 16.5721C25.8509 17.1452 26.5639 18.0819 26.8555 19.1782C27.1471 20.2746 26.9937 21.4418 26.4288 22.4255C26.1518 22.912 25.7812 23.3388 25.3384 23.6814C24.8956 24.0239 24.3893 24.2753 23.8488 24.4211C23.3084 24.5669 22.7443 24.6042 22.1893 24.5309C21.6344 24.4576 21.0994 24.2751 20.6153 23.9939C20.1182 23.7054 19.514 23.1311 18.8013 22.2727L16.2874 19.5688L17.3215 21.5114C18.0585 23.224 18.4299 24.481 18.4299 25.2823C18.4299 26.4188 17.9784 27.5087 17.1748 28.3123C16.3712 29.1159 15.2813 29.5674 14.1448 29.5674C13.0083 29.5674 11.9184 29.1159 11.1148 28.3123C10.3112 27.5087 9.85969 26.4188 9.85969 25.2823C9.85969 24.4795 10.2296 23.2226 10.9681 21.5114L12.0022 19.5688L9.48831 22.2727C8.77556 23.1311 8.17136 23.7054 7.67429 23.9939C7.19021 24.2751 6.65524 24.4576 6.10025 24.5309C5.54526 24.6042 4.98124 24.5669 4.44075 24.4211C3.90026 24.2753 3.394 24.0239 2.9512 23.6814C2.50839 23.3388 2.1378 22.912 1.86083 22.4255C1.29587 21.4418 1.1425 20.2746 1.43411 19.1782C1.72572 18.0819 2.43869 17.1452 3.41775 16.5721C3.95196 16.2607 4.83183 16.0064 6.05452 15.8065L9.85969 15.2837L6.43161 14.8195C5.01038 14.6124 4.00623 14.3381 3.41775 13.9967C2.4383 13.4236 1.72506 12.4866 1.43343 11.3899C1.1418 10.2933 1.29542 9.12576 1.86083 8.14185C2.13768 7.65523 2.50818 7.22828 2.95093 6.88563C3.39369 6.54298 3.89993 6.29142 4.44042 6.14547C4.98092 5.99952 5.54498 5.96208 6.10003 6.0353C6.65508 6.10852 7.19012 6.29095 7.67429 6.57207C8.17136 6.86203 8.77556 7.4348 9.48831 8.29325L12.0022 10.9986C10.5739 7.72476 9.85969 5.82075 9.85969 5.28511C9.85969 4.14863 10.3112 3.05869 11.1148 2.25508C11.9184 1.45147 13.0083 1 14.1448 1V1Z" stroke="#117263" stroke-width="2" stroke-linecap="round" stroke-linejoin="round"/>
<path d="M14.1443 19.5685C16.5109 19.5685 18.4294 17.65 18.4294 15.2834C18.4294 12.9168 16.5109 10.9983 14.1443 10.9983C11.7777 10.9983 9.85916 12.9168 9.85916 15.2834C9.85916 17.65 11.7777 19.5685 14.1443 19.5685Z" stroke="#117263" stroke-width="2" stroke-linecap="round" stroke-linejoin="round"/>
</svg>
