<svg width="32" height="32" viewBox="0 0 32 32" fill="none" xmlns="http://www.w3.org/2000/svg">
<g clip-path="url(#clip0_963_4391)">
<path d="M26.5226 20.3057L15.9993 29.5L4.99929 19C4.1748 18.1977 2.93278 17.0656 2.49928 16C2.06579 14.9344 1.47205 14.15 1.50234 13C1.53264 11.85 1.01264 11.5413 1.50163 10.5C1.99062 9.45867 0.979464 8.8211 1.84505 8.06331C2.71063 7.30552 3.72375 6.73516 4.82059 6.38815C5.91743 6.04113 7.07425 5.92499 8.21818 6.04701C9.36212 6.16904 10.4684 6.52661 11.4674 7.09719C12.4663 7.66777 13.3363 8.43901 14.0226 9.36234C14.7118 8.44572 15.5828 7.68121 16.5811 7.11669C17.5793 6.55216 18.6834 6.19976 19.8241 6.08155C20.9649 5.96333 22.1177 6.08184 23.2105 6.42967C24.3033 6.77749 25.3126 7.34713 26.1752 8.10295C27.0377 8.85877 27.735 9.78449 28.2233 10.8222C28.7116 11.8598 28.9805 12.9872 29.0131 14.1335C29.0457 15.2799 28.8413 16.4207 28.4128 17.4844C27.9843 18.5482 27.3408 19.512 26.5226 20.3157" fill="#CFE2E5"/>
<path d="M18.0212 22.0192L21.3546 25.3525Z" fill="#CFE2E5"/>
<path d="M28.5217 17.3057L16.0217 29.6857L3.52166 17.3057C2.69717 16.5034 2.04773 15.539 1.61424 14.4734C1.18075 13.4078 0.972597 12.2639 1.00289 11.1139C1.03318 9.96387 1.30127 8.83257 1.79026 7.79124C2.27925 6.74991 2.97855 5.8211 3.84414 5.06331C4.70972 4.30552 5.72284 3.73516 6.81968 3.38815C7.91652 3.04113 9.07334 2.92499 10.2173 3.04701C11.3612 3.16904 12.4675 3.52661 13.4665 4.09719C14.4654 4.66777 15.3354 5.43901 16.0217 6.36234C16.7109 5.44572 17.5819 4.68121 18.5802 4.11669C19.5784 3.55216 20.6825 3.19976 21.8232 3.08155C22.9639 2.96333 24.1168 3.08184 25.2096 3.42967C26.3024 3.77749 27.3117 4.34713 28.1742 5.10295C29.0368 5.85877 29.734 6.78449 30.2224 7.82217C30.7107 8.85985 30.9796 9.98715 31.0122 11.1335C31.0448 12.2799 30.8404 13.4207 30.4119 14.4844C29.9833 15.5482 29.3398 16.512 28.5217 17.3157" stroke="#117263" stroke-width="2" stroke-linecap="round" stroke-linejoin="round"/>
<path d="M16.0212 6.35254L10.5329 11.8409C10.2204 12.1534 10.0449 12.5773 10.0449 13.0192C10.0449 13.4611 10.2204 13.885 10.5329 14.1975L11.4379 15.1025C12.5879 16.2525 14.4546 16.2525 15.6046 15.1025L17.2712 13.4359C18.2658 12.4413 19.6147 11.8826 21.0212 11.8826C22.4278 11.8826 23.7767 12.4413 24.7712 13.4359L28.5212 17.1859M16.8546 22.1859L20.1879 25.5192M21.0212 18.0192L24.3546 21.3525" stroke="#117263" stroke-width="2" stroke-linecap="round" stroke-linejoin="round"/>
</g>
<defs>
<clipPath id="clip0_963_4391">
<rect width="32" height="32" fill="white"/>
</clipPath>
</defs>
</svg>
