<svg width="32" height="32" viewBox="0 0 32 32" fill="none" xmlns="http://www.w3.org/2000/svg">
<path d="M12.9796 4C16.8726 7.44429 21.9537 9.23761 27.1463 9C27.9022 11.5717 28.1336 14.2691 27.8265 16.932C27.5194 19.5948 26.6801 22.1688 25.3586 24.5009C24.0371 26.833 21.6268 27.3682 19.5002 29C16.4994 29.5 18.5949 29.827 16.0002 30.5C13.4056 29.827 11.1268 29.6318 9.00023 28C6.87367 26.3682 7.00023 24.5 3.50023 22C2.1787 19.6679 1.8077 18.6629 1.50061 16C1.19351 13.3371 1.24416 11.5717 2.00014 9C7.19269 9.23761 9.08653 7.44429 12.9796 4Z" fill="#CFE2E5"/>
<path d="M15.9786 1C19.8716 4.44429 24.9527 6.23761 30.1452 6C30.9012 8.57169 31.1325 11.2691 30.8254 13.932C30.5183 16.5948 29.6791 19.1688 28.3576 21.5009C27.036 23.833 25.2592 25.8756 23.1327 27.5075C21.0061 29.1393 18.5732 30.327 15.9786 31C13.3839 30.327 10.951 29.1393 8.82447 27.5075C6.69792 25.8756 4.92108 23.833 3.59956 21.5009C2.27803 19.1688 1.43879 16.5948 1.13169 13.932C0.824593 11.2691 1.05591 8.57169 1.8119 6C7.00445 6.23761 12.0855 4.44429 15.9786 1" stroke="#117263" stroke-width="2" stroke-linecap="round" stroke-linejoin="round"/>
<path d="M10.9785 17.0003L14.3118 20.3337L20.9785 13.667" stroke="#117263" stroke-width="2" stroke-linecap="round" stroke-linejoin="round"/>
</svg>
