<svg width="32" height="29" viewBox="0 0 32 29" fill="none" xmlns="http://www.w3.org/2000/svg">
<path d="M25.5 17.5L15.7082 27.5L4.70824 17C3.88375 16.1977 2.64172 15.0656 2.20823 14C1.77474 12.9344 1.181 12.15 1.21129 11C1.24159 9.84997 0.721585 9.54133 1.21058 8.5C1.69957 7.45867 0.688414 6.8211 1.554 6.06331C2.41958 5.30552 3.4327 4.73516 4.52954 4.38815C5.62638 4.04113 6.7832 3.92499 7.92713 4.04701C9.07107 4.16904 10.1774 4.52661 11.1763 5.09719C12.1753 5.66777 13.0453 6.43901 13.7315 7.36234C14.4207 6.44572 15.2918 5.68121 16.29 5.11669C17.2883 4.55216 18.3923 4.19976 19.5331 4.08155C20.6738 3.96333 21.8267 4.08184 22.9195 4.42967C24.0123 4.77749 25.0216 5.34713 25.8841 6.10295C26.7467 6.85877 27.4439 7.78449 27.9322 8.82217C28.4205 9.85985 28.6894 10.9872 28.722 12.1335C28.7546 13.2799 27.9285 13.9362 27.5 15C27.0715 16.0638 26.8181 15.6964 26 16.5" fill="#CFE2E6"/>
<path d="M3.45862 14.948C2.65474 14.1658 2.02154 13.2256 1.59888 12.1866C1.17623 11.1476 0.973282 10.0323 1.00282 8.91105C1.03235 7.78977 1.29373 6.68676 1.7705 5.67146C2.24727 4.65616 2.92909 3.75057 3.77303 3.01173C4.61698 2.27288 5.60477 1.71678 6.67419 1.37844C7.74361 1.04011 8.8715 0.926861 9.98684 1.04584C11.1022 1.16482 12.1808 1.51344 13.1548 2.06976C14.1288 2.62608 14.977 3.37804 15.6461 4.27829C16.3181 3.38457 17.1673 2.63918 18.1407 2.08877C19.114 1.53836 20.1904 1.19477 21.3026 1.07951C22.4148 0.964246 23.5389 1.0798 24.6044 1.41892C25.6699 1.75805 26.6539 2.31346 27.4949 3.05038C28.3359 3.7873 29.0157 4.68987 29.4918 5.70161C29.9679 6.71335 30.2301 7.81247 30.2619 8.93019C30.2937 10.0479 30.0944 11.1601 29.6766 12.1973C29.2588 13.2345 16.5706 26.235 15.7729 27.0185" stroke="#117263" stroke-width="2" stroke-linecap="round" stroke-linejoin="round"/>
</svg>
